# xmcd
#
# Track frame offsets:
#	150
#	18039
#	32589
#	49552
#	67266
#	84971
#	99306
#	116678
#	130469
#	142240
#	160421
#	176511
#
# Disc length: 2618 seconds
#
# Revision: 0
# Processed by: cddbd v1.5.2PL0 Copyright (c) Steve Scherf et al.
# Submitted via: dBpowerAMP V4.0
#
DISCID=9e0a380c
DTITLE=Maruça Rodrigues - Tropical Especial
DYEAR=2006
DGENRE=Brasil
TTITLE0=Tropical Especial
TTITLE1=Para Libertar o Coração
TTITLE2=Desejo do Destino
TTITLE3=Carinhoso
TTITLE4=De Saudade
TTITLE5=Ao Meu Amigo Toninho
TTITLE6=Voltar
TTITLE7=Camisa Amarela
TTITLE8=Zigue-Zague
TTITLE9=Que Ti Ti Ti
TTITLE10=Tristeza Pé no Chão
TTITLE11=Meu Bem Volto Já
EXTD=
EXTT0=
EXTT1=
EXTT2=
EXTT3=
EXTT4=
EXTT5=
EXTT6=
EXTT7=
EXTT8=
EXTT9=
EXTT10=
EXTT11=
PLAYORDER=
